<svg width="105" height="86" viewBox="0 0 105 86" fill="none" xmlns="http://www.w3.org/2000/svg">
<g clip-path="url(#clip0)">
<path d="M98.2901 35.9241C102.344 53.6881 84.8591 69.9507 60.2456 75.598C35.6321 81.2453 12.3929 71.4227 8.33947 53.6587C4.28599 35.8947 20.9532 16.9161 45.5667 11.2689C70.1802 5.62163 94.2366 18.1601 98.2901 35.9241Z" fill="#FCFCFC"/>
<g clip-path="url(#clip1)">
<path d="M40.4949 48.8446C39.6619 48.7281 38.8956 49.3768 38.7623 50.2916C38.6457 51.2064 39.2121 52.0213 40.0451 52.1378C40.8781 52.2542 41.6445 51.6055 41.7778 50.6908C41.9111 49.776 41.3279 48.961 40.4949 48.8446Z" fill="#FB8501"/>
<path d="M67.1649 54.9244C67.2807 54.0595 66.7313 53.2725 65.9378 53.1667C65.1444 53.0609 64.4073 53.6763 64.2916 54.5413C64.1759 55.4062 64.7253 56.1932 65.5187 56.299C66.3122 56.4048 67.0492 55.7894 67.1649 54.9244Z" fill="#FB8501"/>
<path d="M86.3274 32.3945C85.6776 31.5795 82.3956 28.253 78.1639 25.858C78.3471 25.4422 78.0139 24.7935 77.3642 24.228C78.0306 24.4442 78.6137 24.3943 78.8136 24.045C79.0302 23.6791 78.7303 23.0804 78.1472 22.5648C78.7303 22.7477 79.2468 22.6812 79.4134 22.3652C79.58 22.0658 79.3967 21.6334 78.9969 21.2675C79.3468 21.334 79.6466 21.2675 79.7633 21.0512C79.8965 20.8184 79.7466 20.4691 79.4301 20.1864C79.7466 20.2529 80.0298 20.1864 80.1298 20.0034C80.2631 19.7706 80.1131 19.4213 79.7799 19.1884C79.9798 19.1884 80.1631 19.0387 80.2131 18.8059C80.2797 18.573 80.1464 18.3402 79.9299 18.3069C79.7133 18.2736 79.4967 18.44 79.4301 18.6728C79.3967 18.7892 79.4134 18.9057 79.4634 19.0055C79.0635 18.8391 78.6637 18.8724 78.5304 19.1219C78.4304 19.3048 78.4971 19.5543 78.697 19.7706C78.2472 19.6209 77.8307 19.6708 77.6807 19.9202C77.5641 20.1198 77.6474 20.4026 77.8807 20.6521C77.3309 20.4857 76.8477 20.5689 76.6645 20.8683C76.5145 21.151 76.6478 21.5502 76.9977 21.8995C76.248 21.6001 75.5649 21.6167 75.3483 21.9993C75.1484 22.3486 75.3816 22.8808 75.8814 23.3631C75.0318 23.0471 74.282 23.0637 74.0488 23.4796C73.9655 23.6292 73.9488 23.8122 73.9988 24.0118C73.8822 23.9785 73.7656 23.9453 73.6656 23.912C73.6656 23.912 73.8156 16.5605 72.3994 15.7622C71.3332 15.1634 64.0693 26.4567 64.7857 31.33C65.0523 33.1762 60.5207 41.5921 59.8043 41.9414C58.8214 42.4404 56.3057 39.7127 51.1576 39.1139C45.4432 38.432 42.1278 40.9767 41.628 40.0453C41.3115 39.4465 42.2278 26.8725 40.8116 26.3736C40.3951 26.2239 38.146 27.2551 35.3637 28.7686C35.647 29.384 38.6292 35.8041 38.096 35.9704C37.6462 36.1201 34.9806 30.5483 34.3808 29.3008C34.0976 29.4505 33.8143 29.6169 33.5145 29.7832C33.9976 30.698 36.8798 36.2864 36.4467 36.6191C35.8302 37.0681 32.5148 31.4797 32.0317 30.6481C27.2669 33.4922 22.2521 36.9184 22.1522 38.1825C22.0356 39.8291 34.4474 43.4549 34.6973 44.1036C35.0972 45.1182 30.7655 46.8978 26.2173 54.2825C22.3688 60.503 21.5524 67.422 28.6497 69.6674C36.7632 72.2288 42.3444 55.663 51.5242 55.9957C57.4885 56.2119 65.3522 67.5551 72.1162 63.1808C79.0635 58.6735 66.2018 47.3469 66.0019 45.8999C65.802 44.4362 68.6009 37.9496 69.4339 37.9663C70.4002 37.9829 76.248 44.22 79.2968 45.0849C82.3456 45.9498 86.444 43.2054 87.4603 39.7127C88.5099 36.2365 87.7602 34.2074 86.3274 32.3945ZM37.7295 60.2702C35.3471 60.5196 31.4153 55.9458 30.9821 56.2784C30.1658 56.9271 33.7977 61.7338 32.9813 64.0291C32.8314 64.4449 32.0484 65.4095 31.282 65.1268C28.8663 64.212 27.3835 55.2971 29.1661 53.8834C31.8151 51.7877 39.129 56.4946 39.1789 58.7234C39.1789 59.239 38.7958 60.1537 37.7295 60.2702ZM43.8105 51.4717C43.5106 53.7669 41.4281 55.3969 39.1789 55.0975C36.9298 54.7981 35.3471 52.6858 35.6636 50.3906C35.9802 48.0953 38.046 46.4654 40.2952 46.7648C42.5443 47.0641 44.127 49.1598 43.8105 51.4717ZM47.8922 46.1826C47.1759 47.0974 49.1751 50.9894 48.2254 52.27C47.9089 52.7025 46.8426 52.8854 46.4595 52.5362C44.9767 51.1224 44.3936 45.6171 45.7597 44.0703C46.6594 43.0558 50.1914 42.7231 51.091 43.7377C51.4242 44.1036 51.6241 45.4175 51.2243 45.7169C50.6079 46.1826 48.392 45.5506 47.8922 46.1826ZM57.0054 49.9249C56.7721 51.638 55.2227 52.8522 53.5401 52.6359C51.8574 52.4197 50.6912 50.8397 50.9077 49.1265C51.141 47.4134 52.6904 46.1993 54.3731 46.4321C56.0558 46.6317 57.2386 48.2118 57.0054 49.9249ZM60.8872 49.5091C60.1542 49.9249 60.4374 53.1349 59.4378 53.7337C59.1046 53.9333 58.3382 53.7503 58.1716 53.401C57.5552 52.0206 58.6881 48.112 60.0375 47.4467C60.9205 47.0142 63.4029 47.8126 63.7361 48.744C63.8527 49.0766 63.6362 50.0247 63.2863 50.1245C62.7198 50.2908 61.4037 49.2263 60.8872 49.5091ZM69.0841 55.663C68.7842 57.8419 66.8183 59.3887 64.6858 59.1059C62.5532 58.8232 61.0538 56.8107 61.337 54.6318C61.6369 52.453 63.6028 50.9062 65.7354 51.1889C67.8845 51.4717 69.3839 53.4842 69.0841 55.663ZM76.6645 29.2676C76.6311 29.8165 76.148 30.2323 75.6149 30.199C75.0817 30.1657 74.6652 29.6834 74.7152 29.1345C74.7652 28.5857 75.2317 28.1699 75.7648 28.2031C76.2979 28.2364 76.7144 28.7021 76.6645 29.2676ZM85.4277 36.5359C83.7617 36.7854 84.4781 34.9059 84.8946 34.6897C85.8609 34.1575 85.0945 35.0057 85.1612 35.4714C85.2112 35.8207 85.661 35.1887 85.9275 35.4049C86.2608 35.6378 86.4607 36.3696 85.4277 36.5359Z" fill="#FB8501"/>
<path d="M53.8237 47.8628C53.2073 47.7797 52.6242 48.262 52.5409 48.9439C52.4576 49.6259 52.8741 50.2413 53.5072 50.3244C54.1236 50.4076 54.7067 49.9252 54.79 49.2433C54.8733 48.5614 54.4401 47.946 53.8237 47.8628Z" fill="#FB8501"/>
</g>
</g>
<defs>
<clipPath id="clip0">
<rect width="105" height="86" fill="white"/>
</clipPath>
<clipPath id="clip1">
<rect width="65.8079" height="54.2046" fill="white" transform="translate(22.1523 15.7295)"/>
</clipPath>
</defs>
</svg>
