<svg width="66" height="55" viewBox="0 0 66 55" fill="none" xmlns="http://www.w3.org/2000/svg">
<path d="M18.4949 33.8446C17.6619 33.7281 16.8956 34.3768 16.7623 35.2916C16.6457 36.2064 17.2121 37.0213 18.0451 37.1378C18.8781 37.2542 19.6445 36.6055 19.7778 35.6908C19.9111 34.776 19.328 33.961 18.4949 33.8446Z" fill="#FB8501"/>
<path d="M45.1649 39.9244C45.2807 39.0595 44.7313 38.2725 43.9378 38.1667C43.1444 38.0609 42.4073 38.6763 42.2916 39.5413C42.1759 40.4062 42.7253 41.1932 43.5187 41.299C44.3122 41.4048 45.0492 40.7894 45.1649 39.9244Z" fill="#FB8501"/>
<path d="M64.3274 17.3945C63.6777 16.5795 60.3956 13.253 56.1639 10.858C56.3471 10.4422 56.0139 9.7935 55.3642 9.228C56.0306 9.44422 56.6137 9.39433 56.8136 9.04505C57.0302 8.67914 56.7303 8.08038 56.1472 7.56477C56.7303 7.74773 57.2468 7.6812 57.4134 7.36519C57.58 7.06581 57.3967 6.63337 56.9969 6.26746C57.3468 6.33399 57.6466 6.26746 57.7633 6.05124C57.8965 5.81838 57.7466 5.46911 57.4301 5.18636C57.7466 5.25289 58.0298 5.18636 58.1298 5.0034C58.2631 4.77055 58.1131 4.42127 57.7799 4.18842C57.9798 4.18842 58.1631 4.03873 58.2131 3.80588C58.2797 3.57303 58.1465 3.34017 57.9299 3.30691C57.7133 3.27364 57.4967 3.43997 57.4301 3.67282C57.3967 3.78925 57.4134 3.90567 57.4634 4.00547C57.0635 3.83914 56.6637 3.87241 56.5304 4.12189C56.4304 4.30485 56.4971 4.55433 56.697 4.77055C56.2472 4.62086 55.8307 4.67076 55.6807 4.92024C55.5641 5.11983 55.6474 5.40258 55.8807 5.65206C55.3309 5.48574 54.8477 5.5689 54.6645 5.86828C54.5145 6.15103 54.6478 6.5502 54.9977 6.89948C54.248 6.6001 53.5649 6.61673 53.3483 6.99928C53.1484 7.34856 53.3816 7.88079 53.8814 8.36312C53.0318 8.04711 52.2821 8.06374 52.0488 8.47955C51.9655 8.62924 51.9488 8.8122 51.9988 9.01178C51.8822 8.97852 51.7656 8.94525 51.6656 8.91199C51.6656 8.91199 51.8156 1.56052 50.3994 0.762169C49.3332 0.163407 42.0693 11.4567 42.7857 16.33C43.0523 18.1762 38.5207 26.5921 37.8043 26.9414C36.8214 27.4404 34.3057 24.7127 29.1576 24.1139C23.4432 23.432 20.1278 25.9767 19.628 25.0453C19.3115 24.4465 20.2278 11.8725 18.8116 11.3736C18.3951 11.2239 16.146 12.2551 13.3637 13.7686C13.647 14.384 16.6292 20.8041 16.096 20.9704C15.6462 21.1201 12.9806 15.5483 12.3808 14.3008C12.0976 14.4505 11.8143 14.6169 11.5145 14.7832C11.9976 15.698 14.8798 21.2864 14.4467 21.6191C13.8302 22.0681 10.5148 16.4797 10.0317 15.6481C5.26687 18.4922 0.252145 21.9184 0.152184 23.1825C0.0355623 24.8291 12.4474 28.4549 12.6973 29.1036C13.0972 30.1182 8.76552 31.8978 4.21728 39.2825C0.368767 45.503 -0.447584 52.422 6.64967 54.6674C14.7632 57.2288 20.3444 40.663 29.5242 40.9957C35.4885 41.2119 43.3522 52.5551 50.1162 48.1808C57.0635 43.6735 44.2018 32.3469 44.0019 30.8999C43.802 29.4362 46.6009 22.9496 47.4339 22.9663C48.4002 22.9829 54.248 29.22 57.2968 30.0849C60.3456 30.9498 64.444 28.2054 65.4603 24.7127C66.5099 21.2365 65.7602 19.2074 64.3274 17.3945ZM15.7295 45.2702C13.3471 45.5196 9.41527 40.9458 8.98211 41.2784C8.16576 41.9271 11.7977 46.7338 10.9813 49.0291C10.8314 49.4449 10.0484 50.4095 9.28199 50.1268C6.86626 49.212 5.3835 40.2971 7.16614 38.8834C9.81512 36.7877 17.129 41.4946 17.1789 43.7234C17.1789 44.239 16.7958 45.1537 15.7295 45.2702ZM21.8105 36.4717C21.5106 38.7669 19.4281 40.3969 17.1789 40.0975C14.9298 39.7981 13.3471 37.6858 13.6636 35.3906C13.9802 33.0953 16.046 31.4654 18.2952 31.7648C20.5443 32.0641 22.127 34.1598 21.8105 36.4717ZM25.8922 31.1826C25.1758 32.0974 27.1751 35.9893 26.2254 37.27C25.9089 37.7025 24.8426 37.8854 24.4595 37.5362C22.9767 36.1224 22.3936 30.6171 23.7597 29.0703C24.6594 28.0557 28.1914 27.7231 29.091 28.7377C29.4242 29.1036 29.6241 30.4175 29.2243 30.7169C28.6079 31.1826 26.392 30.5506 25.8922 31.1826ZM35.0054 34.9249C34.7721 36.638 33.2227 37.8522 31.5401 37.6359C29.8574 37.4197 28.6912 35.8397 28.9077 34.1265C29.141 32.4134 30.6904 31.1993 32.3731 31.4321C34.0558 31.6317 35.2386 33.2118 35.0054 34.9249ZM38.8872 34.5091C38.1542 34.9249 38.4374 38.1349 37.4378 38.7337C37.1046 38.9333 36.3382 38.7503 36.1716 38.401C35.5552 37.0206 36.6881 33.112 38.0375 32.4467C38.9205 32.0142 41.4029 32.8126 41.7361 33.744C41.8527 34.0766 41.6362 35.0247 41.2863 35.1245C40.7198 35.2908 39.4037 34.2263 38.8872 34.5091ZM47.0841 40.663C46.7842 42.8419 44.8183 44.3887 42.6858 44.1059C40.5532 43.8232 39.0538 41.8106 39.337 39.6318C39.6369 37.453 41.6028 35.9062 43.7354 36.1889C45.8845 36.4717 47.3839 38.4842 47.0841 40.663ZM54.6645 14.2676C54.6311 14.8165 54.148 15.2323 53.6149 15.199C53.0817 15.1657 52.6652 14.6834 52.7152 14.1345C52.7652 13.5857 53.2317 13.1699 53.7648 13.2031C54.2979 13.2364 54.7144 13.7021 54.6645 14.2676ZM63.4277 21.5359C61.7617 21.7854 62.4781 19.9059 62.8946 19.6897C63.8609 19.1575 63.0945 20.0057 63.1612 20.4714C63.2112 20.8207 63.661 20.1887 63.9275 20.4049C64.2608 20.6378 64.4607 21.3696 63.4277 21.5359Z" fill="#FB8501"/>
<path d="M31.8237 32.8628C31.2073 32.7797 30.6242 33.262 30.5409 33.9439C30.4576 34.6259 30.8741 35.2413 31.5072 35.3244C32.1236 35.4076 32.7067 34.9252 32.79 34.2433C32.8733 33.5614 32.4401 32.946 31.8237 32.8628Z" fill="#FB8501"/>
</svg>
