<svg width="277" height="277" viewBox="0 0 277 277" fill="none" xmlns="http://www.w3.org/2000/svg">
<circle cx="138.5" cy="138.5" r="138.5" fill="#FFBF91"/>
<path d="M209.998 82.3262H68V87.5569H209.998V82.3262Z" fill="#FDCE99"/>
<path d="M82.603 57.1738H77.911H76.8085C74.4896 57.1738 72.2208 58.1154 70.5796 59.7601C68.9423 61.4049 68 63.6812 68 66.006V76.2737H209.998V66.006C209.998 63.6812 209.056 61.4068 207.417 59.7601C205.779 58.1154 203.509 57.1738 201.19 57.1738H186.251V68.7415C186.251 70.8996 184.505 72.649 182.354 72.649H174.144C171.991 72.649 170.252 70.8977 170.252 68.7415V57.1738H107.752V68.7415C107.752 70.8996 106.007 72.649 103.858 72.649H95.6439C93.491 72.649 91.7513 70.8977 91.7513 68.7415V57.1738H82.603Z" fill="#FDCE99"/>
<path d="M209.998 76.2773H68V82.3256H209.998V76.2773Z" fill="#FB8501"/>
<path d="M95.6445 66.7424C95.6445 67.8469 96.54 68.7424 97.6445 68.7424H101.858C102.963 68.7424 103.858 67.8469 103.858 66.7424V57.1747V49C103.858 47.8954 102.963 47 101.858 47H97.6445C96.54 47 95.6445 47.8954 95.6445 49V57.1747V66.7424Z" fill="#FCFCFC"/>
<path d="M174.145 66.7424C174.145 67.8469 175.04 68.7424 176.145 68.7424H180.354C181.459 68.7424 182.354 67.8469 182.354 66.7424V57.1747V49C182.354 47.8954 181.459 47 180.354 47H176.145C175.04 47 174.145 47.8954 174.145 49V57.1747V66.7424Z" fill="#FCFCFC"/>
<path d="M68 90H210V165C210 169.418 206.418 173 202 173H76C71.5817 173 68 169.418 68 165V90Z" fill="#FCAA4D"/>
<path d="M119.615 99H105.285C103.628 99 102.285 100.343 102.285 102V114.143C102.285 115.8 103.628 117.143 105.285 117.143H119.615C121.272 117.143 122.615 115.8 122.615 114.143V102C122.615 100.343 121.272 99 119.615 99Z" fill="#FB8501"/>
<path d="M145.898 99H131.57C129.913 99 128.57 100.343 128.57 102V114.143C128.57 115.8 129.913 117.143 131.57 117.143H145.898C147.555 117.143 148.898 115.8 148.898 114.143V102C148.898 100.343 147.555 99 145.898 99Z" fill="#FB8501"/>
<path d="M172.183 99H157.854C156.197 99 154.854 100.343 154.854 102V114.143C154.854 115.8 156.197 117.143 157.854 117.143H172.183C173.84 117.143 175.183 115.8 175.183 114.143V102C175.183 100.343 173.84 99 172.183 99Z" fill="#FB8501"/>
<path d="M198.467 99H184.143C182.486 99 181.143 100.343 181.143 102V114.143C181.143 115.8 182.486 117.143 184.143 117.143H198.467C200.123 117.143 201.467 115.8 201.467 114.143V102C201.467 100.343 200.123 99 198.467 99Z" fill="#FB8501"/>
<path d="M93.3279 122.16H79C77.3431 122.16 76 123.503 76 125.16V137.303C76 138.96 77.3431 140.303 79 140.303H93.3279C94.9848 140.303 96.3279 138.96 96.3279 137.303V125.16C96.3279 123.503 94.9848 122.16 93.3279 122.16Z" fill="#FB8501"/>
<path d="M119.615 122.16H105.285C103.628 122.16 102.285 123.503 102.285 125.16V137.303C102.285 138.96 103.628 140.303 105.285 140.303H119.615C121.272 140.303 122.615 138.96 122.615 137.303V125.16C122.615 123.503 121.272 122.16 119.615 122.16Z" fill="#FB8501"/>
<path d="M145.898 122.16H131.57C129.913 122.16 128.57 123.503 128.57 125.16V137.303C128.57 138.96 129.913 140.303 131.57 140.303H145.898C147.555 140.303 148.898 138.96 148.898 137.303V125.16C148.898 123.503 147.555 122.16 145.898 122.16Z" fill="#FB8501"/>
<path d="M172.183 122.16H157.854C156.197 122.16 154.854 123.503 154.854 125.16V137.303C154.854 138.96 156.197 140.303 157.854 140.303H172.183C173.84 140.303 175.183 138.96 175.183 137.303V125.16C175.183 123.503 173.84 122.16 172.183 122.16Z" fill="#FDCE99"/>
<path d="M198.467 122.16H184.143C182.486 122.16 181.143 123.503 181.143 125.16V137.303C181.143 138.96 182.486 140.303 184.143 140.303H198.467C200.123 140.303 201.467 138.96 201.467 137.303V125.16C201.467 123.503 200.123 122.16 198.467 122.16Z" fill="#FB8501"/>
<path d="M198.058 145.324H183.734C182.078 145.324 180.734 146.667 180.734 148.324V160.467C180.734 162.124 182.078 163.467 183.734 163.467H198.058C199.715 163.467 201.058 162.124 201.058 160.467V148.324C201.058 146.667 199.715 145.324 198.058 145.324Z" fill="#FB8501"/>
<path d="M93.3279 145.318H79C77.3431 145.318 76 146.662 76 148.318V160.459C76 162.116 77.3431 163.459 79 163.459H93.3279C94.9848 163.459 96.3279 162.116 96.3279 160.459V148.318C96.3279 146.662 94.9848 145.318 93.3279 145.318Z" fill="#FB8501"/>
<path d="M119.615 145.318H105.285C103.628 145.318 102.285 146.662 102.285 148.318V160.459C102.285 162.116 103.628 163.459 105.285 163.459H119.615C121.272 163.459 122.615 162.116 122.615 160.459V148.318C122.615 146.662 121.272 145.318 119.615 145.318Z" fill="#FDCE99"/>
<path d="M145.898 145.318H131.57C129.913 145.318 128.57 146.662 128.57 148.318V160.459C128.57 162.116 129.913 163.459 131.57 163.459H145.898C147.555 163.459 148.898 162.116 148.898 160.459V148.318C148.898 146.662 147.555 145.318 145.898 145.318Z" fill="#FB8501"/>
<path d="M172.183 145.318H157.854C156.197 145.318 154.854 146.662 154.854 148.318V160.459C154.854 162.116 156.197 163.459 157.854 163.459H172.183C173.84 163.459 175.183 162.116 175.183 160.459V148.318C175.183 146.662 173.84 145.318 172.183 145.318Z" fill="#FB8501"/>
</svg>
