<svg width="207" height="207" viewBox="0 0 207 207" fill="none" xmlns="http://www.w3.org/2000/svg">
<circle cx="103.5" cy="103.5" r="103.5" fill="#FEE2CD"/>
<path d="M109.65 70.7725H31.3496C28.2753 70.7725 25.7832 73.2552 25.7832 76.3179V120.682C25.7832 123.744 28.2753 126.227 31.3496 126.227H109.65C112.725 126.227 115.217 123.744 115.217 120.682V76.3179C115.217 73.2552 112.725 70.7725 109.65 70.7725Z" fill="#B7FFEE"/>
<path d="M109.65 129H31.3496C26.7456 129 23 125.268 23 120.682V76.3182C23 71.7315 26.7456 68 31.3496 68H109.65C114.254 68 118 71.7315 118 76.3182V120.682C118 125.268 114.254 129 109.65 129ZM31.3496 73.5455C29.815 73.5455 28.5664 74.7893 28.5664 76.3182V120.682C28.5664 122.211 29.815 123.455 31.3496 123.455H109.65C111.185 123.455 112.434 122.211 112.434 120.682V76.3182C112.434 74.7893 111.185 73.5455 109.65 73.5455H31.3496ZM41.2764 92.9545C37.4396 92.9545 34.3184 89.8448 34.3184 86.0227C34.3184 82.2006 37.4396 79.0909 41.2764 79.0909C45.1131 79.0909 48.2344 82.2006 48.2344 86.0227C48.2344 89.8448 45.1131 92.9545 41.2764 92.9545ZM106.214 113.598L83.9484 80.3257C82.8468 78.6794 80.4186 78.6794 79.317 80.3257L67.8201 97.5061L61.5732 89.4154C60.4589 87.9725 58.2752 87.9725 57.161 89.4154L38.6063 113.446C37.1986 115.269 38.5034 117.909 40.8125 117.909H103.898C106.121 117.909 107.447 115.441 106.214 113.598Z" fill="#25E4B7"/>
<g clip-path="url(#clip0)">
<path d="M109.154 57.8348H49.8457C48.8264 57.8348 48 56.7721 48 55.4613C48 54.1506 48.8264 53.0879 49.8457 53.0879H109.154C110.174 53.0879 111 54.1506 111 55.4613C111 56.7721 110.174 57.8348 109.154 57.8348ZM109.154 45.1765H49.8457C48.8264 45.1765 48 44.1139 48 42.8031C48 41.4923 48.8264 40.4297 49.8457 40.4297H109.154C110.174 40.4297 111 41.4923 111 42.8031C111 44.1139 110.174 45.1765 109.154 45.1765Z" fill="#FDCE99"/>
<path d="M81.3457 58.6262V52.2971C81.3457 50.9863 80.5193 49.9237 79.5 49.9237C78.4807 49.9237 77.6543 50.9863 77.6543 52.2971V58.6262C77.6543 59.937 78.4807 60.9996 79.5 60.9996C80.5193 60.9996 81.3457 59.937 81.3457 58.6262ZM69.041 45.968V39.6389C69.041 38.3281 68.2146 37.2654 67.1953 37.2654C66.176 37.2654 65.3496 38.3281 65.3496 39.6389V45.968C65.3496 47.2787 66.176 48.3414 67.1953 48.3414C68.2146 48.3414 69.041 47.2787 69.041 45.968Z" fill="#FCAA4D"/>
</g>
<path d="M129.543 103H121.457C120.467 103 119.623 102.283 119.462 101.306L118.219 93.7327C116.339 93.1907 114.527 92.4384 112.807 91.4858L106.663 95.8741C105.859 96.4484 104.758 96.3573 104.059 95.6585L98.3414 89.9412C97.6426 89.2425 97.5515 88.141 98.1257 87.3369L102.514 81.1929C101.561 79.4732 100.809 77.6612 100.267 75.7808L92.6941 74.5379C91.7171 74.3774 91 73.5331 91 72.543V64.457C91 63.4669 91.7171 62.6226 92.6941 62.4622L100.267 61.2193C100.809 59.3389 101.561 57.527 102.514 55.8072L98.1257 49.6633C97.5514 48.8591 97.6426 47.7577 98.3414 47.0589L104.059 41.3414C104.758 40.6426 105.859 40.5515 106.663 41.1257L112.807 45.5141C114.527 44.5614 116.339 43.8092 118.219 43.2672L119.462 35.694C119.623 34.7171 120.467 34 121.457 34H129.543C130.533 34 131.377 34.7171 131.538 35.6941L132.781 43.2672C134.661 43.8092 136.473 44.5614 138.193 45.5141L144.337 41.1257C145.141 40.5514 146.242 40.6425 146.941 41.3414L152.659 47.0588C153.357 47.7575 153.449 48.859 152.874 49.6631L148.486 55.8071C149.439 57.527 150.191 59.3389 150.733 61.2192L158.306 62.4621C159.283 62.6226 160 63.4669 160 64.457V72.543C160 73.5331 159.283 74.3774 158.306 74.5378L150.733 75.7807C150.191 77.6611 149.439 79.473 148.486 81.1928L152.874 87.3367C153.449 88.1409 153.357 89.2423 152.659 89.9411L146.941 95.6586C146.242 96.3574 145.141 96.4485 144.337 95.8743L138.193 91.4859C136.473 92.4386 134.661 93.1908 132.781 93.7328L131.538 101.306C131.377 102.283 130.533 103 129.543 103V103ZM157.979 72.543H157.98H157.979Z" fill="#78E396"/>
<path d="M125.5 82.6504C117.697 82.6504 111.35 76.3025 111.35 68.5C111.35 60.6975 117.697 54.3496 125.5 54.3496C133.303 54.3496 139.65 60.6975 139.65 68.5C139.65 76.3025 133.303 82.6504 125.5 82.6504Z" fill="#C7FCD6"/>
<defs>
<clipPath id="clip0">
<rect width="63" height="25" fill="white" transform="translate(48 36)"/>
</clipPath>
</defs>
</svg>
