<svg width="262" height="232" viewBox="0 0 262 232" fill="none" xmlns="http://www.w3.org/2000/svg">
<circle cx="146" cy="116" r="116" fill="#ACF3D9"/>
<g clip-path="url(#clip0)">
<path d="M168.053 77.6785L134.01 111.73C132.58 113.161 132.58 115.479 134.01 116.909L168.706 151.598C170.136 153.028 172.455 153.027 173.885 151.597L207.928 117.545C209.358 116.115 209.358 113.796 207.927 112.366L173.232 77.6777C171.801 76.2478 169.482 76.248 168.053 77.6785V77.6785Z" fill="#FEB6B4"/>
<path d="M173.232 77.6777C171.802 76.2478 169.483 76.248 168.053 77.6785L146.512 99.2253L186.38 139.099L207.928 117.545C209.358 116.114 209.358 113.796 207.928 112.366L173.232 77.6777Z" fill="#FEB6B4"/>
<path d="M158.576 38.8693L152.539 32.8324C149.203 29.496 143.794 29.496 140.457 32.8324L134.442 38.8693C131.105 42.2057 131.105 47.6149 134.442 50.9513L140.468 56.9774C143.804 60.3138 149.214 60.3138 152.55 56.9774L158.576 50.9513C161.913 47.6149 161.913 42.2054 158.576 38.8693V38.8693Z" fill="#FEB6B4"/>
<path d="M85.073 117.545L119.135 151.598C120.565 153.028 122.884 153.027 124.314 151.597L137.452 138.454C149.039 138.454 160.157 133.849 168.351 125.652C180.792 113.218 197.799 96.2046 197.799 96.2046C201.128 92.8735 201.128 87.4663 197.799 84.1353C194.47 80.8042 189.071 80.8042 185.742 84.1353L188.751 81.1157C192.08 77.7847 192.08 72.3774 188.751 69.0464C185.422 65.7131 180.023 65.7131 176.673 69.0464L179.703 66.0269C183.032 62.6958 183.032 57.2864 179.703 53.9553C176.374 50.6243 170.954 50.6243 167.626 53.9553L170.656 50.938C173.985 47.6069 173.985 42.1975 170.656 38.8665C167.305 35.5354 161.907 35.5354 158.578 38.8665L85.0728 112.365C83.6424 113.796 83.6424 116.115 85.073 117.545V117.545Z" fill="#FFCFC8"/>
<path d="M152.538 56.9749L134.442 38.8665C131.092 35.5354 125.693 35.5354 122.365 38.8665C119.036 42.1975 119.036 47.6069 122.365 50.938L125.373 53.9553C122.045 50.6243 116.646 50.6243 113.317 53.9553C109.967 57.2864 109.967 62.6958 113.317 66.0269L116.326 69.0464C112.997 65.7131 107.576 65.7131 104.248 69.0464C100.919 72.3774 100.919 77.7847 104.248 81.1157L107.093 83.9592C103.751 80.8076 98.4683 80.8645 95.1998 84.1353C91.8709 87.4663 91.8709 92.8735 95.1998 96.2046L104.248 105.259C107.576 108.59 112.997 108.59 116.326 105.259C119.654 101.928 119.655 96.5186 116.326 93.1875C119.655 96.5183 125.074 96.5183 128.403 93.1873C131.732 89.8562 131.732 84.4468 128.403 81.1157C131.732 84.4468 137.131 84.4468 140.46 81.1157C143.789 77.7847 143.789 72.3774 140.46 69.0464C143.789 72.3774 149.209 72.3774 152.538 69.0464C155.867 65.7131 155.867 60.3059 152.538 56.9749V56.9749Z" fill="#FEB6B4"/>
<path d="M197.8 84.1354C194.471 80.8044 189.072 80.8044 185.743 84.1354L188.752 81.1159C192.081 77.7848 192.081 72.3776 188.752 69.0466C185.488 65.7783 180.235 65.717 176.873 68.8578L106.633 139.098L119.136 151.598C120.566 153.028 122.885 153.028 124.315 151.597L137.453 138.454C149.04 138.454 160.157 133.849 168.352 125.653C180.792 113.218 197.8 96.2048 197.8 96.2048C201.128 92.8737 201.128 87.4665 197.8 84.1354V84.1354Z" fill="#FFCFC8"/>
<path d="M152.538 69.0464C155.867 65.7131 155.867 60.3059 152.538 56.9749L134.443 38.8665C131.093 35.5354 125.694 35.5354 122.365 38.8665C119.036 42.1975 119.036 47.6069 122.365 50.938L125.374 53.9553C122.045 50.6243 116.646 50.6243 113.317 53.9553C109.967 57.2864 109.967 62.6958 113.317 66.0269L128.404 81.1157C131.733 84.4468 137.132 84.4468 140.461 81.1157C143.789 77.7847 143.789 72.3774 140.461 69.0464C143.789 72.3774 149.21 72.3774 152.538 69.0464V69.0464Z" fill="#FEB6B4"/>
</g>
<g clip-path="url(#clip1)">
<path d="M64.1475 41.5526V26.4584C64.1475 25.6797 63.7774 24.9492 63.1574 24.4829C62.5325 24.0238 61.7298 23.8821 60.98 24.1008L11.7598 39.195L12.4664 44.0136H19.8494V103.078H64.1477V44.0136H61.6867C63.0468 44.0136 64.1475 42.9129 64.1475 41.5526V41.5526Z" fill="#C7FCD6"/>
<path d="M71.5312 39.0918H12.4669C11.0885 39.0918 10.0059 40.1745 10.0059 41.5528V105.539C10.0059 106.917 11.0885 108 12.4669 108H71.5312C72.9096 108 73.9922 106.917 73.9922 105.539V41.5528C73.9922 40.1745 72.9096 39.0918 71.5312 39.0918V39.0918ZM41.999 48.9359C46.0845 48.9359 49.3821 52.2336 49.3821 56.3189C49.3821 58.9274 47.9549 61.3884 45.6906 62.7175C44.9521 63.1607 44.4601 63.948 44.4601 64.834V66.1631C44.4601 67.5411 43.3774 68.6241 41.999 68.6241C40.6207 68.6241 39.538 67.5411 39.538 66.1631V64.834C39.538 62.2255 40.9653 59.7645 43.2296 58.4354C43.968 57.9922 44.4601 57.2049 44.4601 56.3189C44.4601 54.9406 43.3774 53.8579 41.999 53.8579C40.6207 53.8579 39.538 54.9406 39.538 56.3189C39.538 57.6969 38.4553 58.7799 37.077 58.7799C35.6987 58.7799 34.616 57.6969 34.616 56.3189C34.616 52.2336 37.9138 48.9359 41.999 48.9359V48.9359ZM44.4601 76.2037C44.4601 77.5328 43.3774 78.6647 41.999 78.6647C40.6207 78.6647 39.538 77.5328 39.538 76.2037C39.538 74.8257 40.6207 73.7427 41.999 73.7427C43.3774 73.7427 44.4601 74.8257 44.4601 76.2037ZM56.7651 98.1561H27.233C25.8546 98.1561 24.7719 97.0731 24.7719 95.6951C24.7719 94.3168 25.8546 93.2341 27.233 93.2341H56.7651C58.1435 93.2341 59.2261 94.3168 59.2261 95.6951C59.2261 97.0731 58.1435 98.1561 56.7651 98.1561ZM56.7651 88.3121H27.233C25.8546 88.3121 24.7719 87.2291 24.7719 85.8511C24.7719 84.4727 25.8546 83.3901 27.233 83.3901H56.7651C58.1435 83.3901 59.2261 84.4727 59.2261 85.8511C59.2261 87.2291 58.1435 88.3121 56.7651 88.3121Z" fill="#78E396"/>
</g>
<defs>
<clipPath id="clip0">
<rect width="125" height="125" fill="white" transform="translate(84 29)"/>
</clipPath>
<clipPath id="clip1">
<rect width="84" height="84" fill="white" transform="translate(0 24)"/>
</clipPath>
</defs>
</svg>
