<svg width="277" height="277" viewBox="0 0 277 277" fill="none" xmlns="http://www.w3.org/2000/svg">
<circle cx="138.5" cy="138.5" r="138.5" fill="#ACF3D9"/>
<path d="M189.142 53H86.046C79.9336 53 75 57.9339 75 64.046V130.322L136.153 137.686L200.188 130.322V64.046C200.188 57.9339 195.254 53 189.142 53Z" fill="#78E396"/>
<path d="M108.138 119.277H167.05C173.141 119.277 178.096 114.322 178.096 108.231V78.7745C178.096 72.6835 173.141 67.7285 167.05 67.7285H108.138C102.047 67.7285 97.092 72.6835 97.092 78.7745V108.231C97.092 114.322 102.047 119.277 108.138 119.277ZM115.502 82.4565H159.686C161.721 82.4565 163.368 84.1034 163.368 86.1385C163.368 88.1737 161.721 89.8205 159.686 89.8205H115.502C113.467 89.8205 111.82 88.1737 111.82 86.1385C111.82 84.1034 113.467 82.4565 115.502 82.4565ZM115.502 97.1845H137.594C139.629 97.1845 141.276 98.8314 141.276 100.867C141.276 102.902 139.629 104.549 137.594 104.549H115.502C113.467 104.549 111.82 102.902 111.82 100.867C111.82 98.8314 113.467 97.1845 115.502 97.1845ZM75 130.323V137.687C75 143.798 79.9336 148.733 86.046 148.733H119.184V160.27C119.184 166.381 114.25 171.316 108.138 171.316H100.774C98.7118 171.316 97.092 172.935 97.092 174.998C97.092 177.059 98.7118 178.68 100.774 178.68H174.414C176.476 178.68 178.096 177.059 178.096 174.998C178.096 172.935 176.476 171.316 174.414 171.316H167.05C160.938 171.316 156.004 166.381 156.004 160.27V148.733H189.142C195.254 148.733 200.188 143.798 200.188 137.687V130.323H75Z" fill="#C7FCD6"/>
<g clip-path="url(#clip0)">
<path d="M32.6741 145.527L35.0665 147.919L37.4828 159.858L49.4213 162.274L54.1825 157.513L51.7663 145.574L39.8277 143.158L37.4353 140.766C36.0953 139.426 33.9952 139.421 32.6622 140.754C31.3289 142.087 31.3341 144.187 32.6741 145.527ZM85.1302 126.565L88.4631 123.232C91.3196 120.376 93.3624 116.515 94.3061 112.126C95.061 108.595 96.8189 105.307 99.3901 102.735C100.723 101.402 100.718 99.3023 99.3782 97.9623C98.0382 96.6224 95.9381 96.6175 94.6051 97.9504C92.0339 100.522 88.7452 102.279 85.2147 103.034C80.8261 103.978 76.965 106.021 74.1083 108.877L70.7754 112.21L73.1917 124.149L85.1302 126.565Z" fill="#FCAA4D"/>
<path d="M23.1763 164.595L32.7462 174.165C34.0861 175.505 36.186 175.51 37.5193 174.177L49.4222 162.274L35.0674 147.919L23.1645 159.822C21.8312 161.156 21.8364 163.255 23.1763 164.595ZM85.1311 126.565L70.7763 112.21L39.8286 143.158L54.1834 157.513L85.1311 126.565Z" fill="#FDCE99"/>
</g>
<defs>
<clipPath id="clip0">
<rect width="30" height="101" fill="white" transform="translate(37.2129 178.631) rotate(-135)"/>
</clipPath>
</defs>
</svg>
