<svg width="207" height="207" viewBox="0 0 207 207" fill="none" xmlns="http://www.w3.org/2000/svg">
<circle cx="103.5" cy="103.5" r="103.5" fill="#FEE2CD"/>
<path d="M103.008 141.914C102.31 141.914 101.625 141.786 100.974 141.534C96.8918 139.95 89.0314 136.395 82.2537 130.383C73.6251 122.727 69.25 113.578 69.25 103.188V77.2939C69.25 75.2958 70.3238 73.4313 72.0522 72.4285C74.6146 70.942 76.7545 68.8019 78.241 66.2397C79.2438 64.5113 81.1083 63.4375 83.1064 63.4375H122.893C124.892 63.4375 126.756 64.5113 127.759 66.2397C129.245 68.8019 131.385 70.942 133.948 72.4285C135.676 73.4314 136.75 75.2958 136.75 77.2939V103.188C136.75 113.602 132.389 122.755 123.788 130.394C117.009 136.414 109.126 139.96 105.031 141.538C104.383 141.788 103.703 141.914 103.008 141.914V141.914Z" fill="#B7FFEE"/>
<path d="M142.375 66.25C137.723 66.25 133.938 62.4649 133.938 57.8125C133.938 56.2592 132.678 55 131.125 55H74.875C73.3217 55 72.0625 56.2592 72.0625 57.8125C72.0625 62.4649 68.2774 66.25 63.625 66.25C62.0717 66.25 60.8125 67.5092 60.8125 69.0625V103.188C60.8125 111.429 63.0304 119.093 67.4046 125.967C70.8653 131.405 75.6674 136.339 81.6779 140.632C90.7232 147.093 101.459 151 103 151C104.461 151 115.146 147.187 124.322 140.632C130.333 136.339 135.135 131.405 138.596 125.967C142.97 119.093 145.188 111.429 145.188 103.188V69.0625C145.188 67.5092 143.928 66.25 142.375 66.25V66.25ZM133.938 103.188C133.938 112.763 129.894 121.209 121.92 128.291C115.473 134.017 107.937 137.404 104.019 138.914C103.367 139.165 102.644 139.165 101.991 138.912C98.0849 137.396 90.5691 134 84.1202 128.279C76.1192 121.181 72.0625 112.739 72.0625 103.188V77.2939C72.0625 76.2912 72.5963 75.3644 73.4637 74.8613C76.4487 73.1294 78.9421 70.6362 80.6738 67.6512C81.1769 66.7838 82.1039 66.25 83.1064 66.25H122.893C123.896 66.25 124.823 66.7838 125.326 67.6512C127.058 70.6362 129.551 73.1296 132.536 74.8613C133.404 75.3646 133.938 76.2914 133.938 77.2939V103.188ZM103 80.6875C92.1443 80.6875 83.3125 89.5193 83.3125 100.375C83.3125 111.231 92.1443 120.062 103 120.062C113.856 120.062 122.688 111.231 122.688 100.375C122.688 89.5193 113.856 80.6875 103 80.6875ZM111.176 98.1451L102.739 106.583C101.64 107.681 99.8596 107.681 98.7612 106.583L94.5424 102.364C93.4441 101.265 93.4441 99.4847 94.5424 98.3864C95.6406 97.288 97.4215 97.288 98.5199 98.3864L100.75 100.616L107.199 94.1676C108.297 93.0692 110.078 93.0692 111.176 94.1676C112.274 95.2658 112.274 97.0467 111.176 98.1451V98.1451Z" fill="#25E4B7"/>
<g clip-path="url(#clip0)">
<path d="M7.2795 135.797C14.8262 143.554 27.2789 143.726 35.0363 136.179C40.7909 130.581 42.3488 122.288 39.7008 115.21L68.6418 87.0548C69.0156 86.6912 69.2284 86.1952 69.2356 85.6748L69.3502 77.3479C69.3651 76.2635 68.4989 75.3732 67.4147 75.3583L59.0876 75.2437C58.5673 75.2365 58.0656 75.4356 57.6918 75.7992L48.757 84.433C48.3833 84.7965 48.1703 85.2925 48.1632 85.813L48.0982 90.5355L44.5653 90.4869C43.4811 90.472 42.5908 91.3381 42.5758 92.4223L42.5272 95.9552L37.7923 95.89C37.2719 95.8829 36.7703 96.082 36.3965 96.4456L28.7507 103.954C21.7481 101.112 13.4159 102.442 7.66141 108.04C-0.095844 115.587 -0.267243 128.039 7.2795 135.797V135.797Z" fill="#72EB94"/>
</g>
<defs>
<clipPath id="clip0">
<rect width="67" height="67" fill="white" transform="translate(1.91992 74.9219)"/>
</clipPath>
</defs>
</svg>
