<svg width="232" height="232" viewBox="0 0 232 232" fill="none" xmlns="http://www.w3.org/2000/svg">
<circle cx="116" cy="116" r="116" fill="#FFEADA"/>
<g clip-path="url(#clip0)">
<path d="M114.712 122.342V129.534C114.712 130.344 114.056 131 113.247 131H59.7553C58.9456 131 58.2897 130.344 58.2897 129.534V122.342C58.2897 116.812 61.578 112.047 66.3061 109.898C64.377 108.363 61.4366 106.3 59.2973 101.862C56.3177 95.6887 56.8277 88.4062 60.6236 82.7057C62.6863 79.6098 63.7854 75.9753 63.7854 72.2566V64.319C63.7854 54.2014 71.9868 46 82.1044 46H90.8975C101.015 46 109.216 54.2014 109.216 64.319C109.216 72.725 109.011 74.3711 110.024 77.7138C111.454 82.4403 113.343 83.025 114.798 87.835C117.086 95.396 114.555 103.642 108.319 108.607L106.696 109.898C111.424 112.047 114.712 116.812 114.712 122.342Z" fill="#FFCFC8"/>
<path d="M114.711 122.343V129.535C114.711 130.344 114.055 131.001 113.246 131.001H59.7546C58.9452 131.001 58.2891 130.344 58.2891 129.535V122.343C58.2891 114.803 64.4019 108.683 71.9495 108.683C73.0725 108.683 74.1386 108.439 75.0967 108.003L75.1425 108.102L85.6032 116.2C86.1313 116.609 86.8692 116.609 87.3975 116.2L97.858 108.102L97.9038 108.003C98.8619 108.439 99.9281 108.683 101.051 108.683C108.569 108.683 114.711 114.773 114.711 122.343Z" fill="#C7FCD6"/>
<path d="M103.25 72.7931C104.028 72.8374 104.637 73.4768 104.637 74.2561V83.0283C104.637 90.5885 100.011 97.0679 93.4347 99.7901C81.5426 104.727 68.3652 95.9571 68.3652 83.0283V74.3836C68.3652 73.5246 69.1009 72.8459 69.9564 72.9233C78.7471 73.7204 87.4038 71.5005 94.6729 66.6035C95.4996 66.0466 96.638 66.4591 96.899 67.4212C97.8032 70.7542 100.27 72.6233 103.25 72.7931Z" fill="#FFCFC8"/>
<path d="M108.318 108.607L106.695 109.898C104.974 109.118 103.064 108.682 101.05 108.682C96.8684 108.682 93.4609 105.305 93.4609 101.109V99.8578L93.4334 99.79C100.01 97.0678 104.635 90.5884 104.635 83.0281V74.2559C104.635 73.4766 104.026 72.8373 103.248 72.793C100.287 72.6242 97.8078 70.7755 96.8977 67.4213C96.6367 66.4592 95.4984 66.0466 94.6716 66.6035C87.4072 71.4973 78.7512 73.7208 69.9551 72.9234C69.0996 72.8459 68.3639 73.5246 68.3639 74.3836V83.0283C68.3639 90.5885 72.9895 97.068 79.566 99.7902L79.5385 99.8579V101.109C79.5385 105.304 76.1319 108.682 71.949 108.682C69.9357 108.682 68.025 109.118 66.3049 109.899L64.6818 108.607C56.8026 102.329 55.0482 91.0767 60.6223 82.7059C62.685 79.61 63.7842 75.9755 63.7842 72.2568V64.319C63.7842 54.2018 71.986 46 82.1032 46H90.8963C101.013 46 109.215 54.2018 109.215 64.319V72.2566C109.215 75.9709 110.314 79.6098 112.377 82.7057C117.972 91.1072 116.167 102.358 108.318 108.607V108.607Z" fill="#FCAA4D"/>
<path d="M93.6685 102.866C89.1552 104.755 84.1954 104.902 79.332 102.866C79.5804 101.835 79.539 101.168 79.539 99.8578L79.5665 99.79C83.9781 101.621 89.0138 101.625 93.434 99.79L93.4615 99.8578C93.4615 101.168 93.4201 101.836 93.6685 102.866Z" fill="#FFCFC8"/>
<path d="M99.1725 47.9715C101.043 48.9204 100.23 51.7758 98.1419 51.5781C97.5661 51.5235 96.9825 51.4957 96.3924 51.4957H87.5993C77.4821 51.4957 69.2804 59.6975 69.2804 69.8147V72.0437C69.2804 73.3597 68.3644 73.3172 68.3644 74.3834C68.3644 84.0599 68.4036 83.4473 68.2617 83.8648C66.8245 88.0924 65.0987 88.7043 63.6986 93.3307C62.936 95.8507 62.7106 98.4457 62.9748 100.964C63.1904 103.019 60.3284 104.003 59.2965 101.862C56.3382 95.7329 56.8015 88.4445 60.6228 82.7057C62.6855 79.6098 63.7847 75.9753 63.7847 72.2566V64.319C63.7847 54.2018 71.9865 46 82.1037 46H90.8968C93.8749 46 96.6868 46.7106 99.1725 47.9715V47.9715Z" fill="#FCAA4D"/>
<path d="M83.0243 95.1778C85.7609 97.0097 83.6751 101.247 80.5677 100.156C73.7373 97.7595 68.3652 91.3847 68.3652 83.0287V74.384C68.3652 73.5248 69.1017 72.847 69.9572 72.9239C70.6591 72.9877 71.43 73.0379 72.2619 73.0633C73.7675 73.1091 74.9601 74.3524 74.9601 75.8588V80.0978C74.9601 86.4776 78.2128 91.9572 83.0243 95.1778Z" fill="#FFCFC8"/>
<path d="M78.1639 110.441C79.0333 111.114 78.5738 112.525 77.4743 112.53C69.7194 112.558 63.7848 118.785 63.7848 126.19V131.001H59.7546C58.9452 131.001 58.2891 130.344 58.2891 129.535V122.343C58.2891 114.802 64.4021 108.683 71.9495 108.683C73.0725 108.683 74.1386 108.439 75.0967 108.003L75.1425 108.102L78.1639 110.441Z" fill="#C7FCD6"/>
<path d="M94.8373 110.441C93.9678 111.114 94.4273 112.525 95.5268 112.53C103.282 112.558 109.216 118.785 109.216 126.19V131.001H113.247C114.056 131.001 114.712 130.344 114.712 129.535V122.343C114.712 114.802 108.599 108.683 101.052 108.683C99.9287 108.683 98.8625 108.439 97.9044 108.003L97.8586 108.102L94.8373 110.441Z" fill="#C7FCD6"/>
</g>
<g clip-path="url(#clip1)">
<path d="M165.709 122.344V129.535C165.709 130.344 165.053 131 164.243 131H110.758C109.949 131 109.293 130.344 109.293 129.535V122.344C109.293 114.799 115.409 108.687 122.955 108.685C125.622 108.683 127.971 107.311 129.322 105.23C130.68 103.143 130.54 101.328 130.54 99.8615L130.568 99.7938C123.992 97.0719 119.367 90.5933 119.367 83.0339V82.4606C116.756 82.4606 114.788 80.3972 114.788 77.9657V70.3532C114.729 67.7028 114.85 58.3558 121.602 51.8478C129.452 44.2812 141.893 44.9003 150.905 48.9483C151.198 49.0802 151.189 49.4996 150.892 49.6223L148.542 50.5895C148.19 50.7342 148.266 51.2525 148.643 51.2928L149.784 51.4155C155.924 52.0713 161.032 55.7365 163.58 60.0794C163.604 60.1215 163.597 60.1765 163.562 60.2131C161.532 62.2829 160.397 65.0689 160.397 67.9702V77.7001C160.397 80.3249 158.27 82.4606 155.634 82.4606V83.0339C155.634 90.5933 151.009 97.0719 144.434 99.7938L144.461 99.8615C144.461 101.287 144.31 103.126 145.679 105.23C147.031 107.311 149.379 108.683 152.046 108.685C159.593 108.687 165.709 114.799 165.709 122.344V122.344Z" fill="#FFCFC8"/>
<path d="M163.578 60.0791C163.602 60.1207 163.595 60.1763 163.56 60.2126C161.531 62.2831 160.395 65.0695 160.395 67.9701V77.7C160.395 80.3246 158.269 82.4605 155.633 82.4605C155.633 76.9177 155.636 74.0211 155.635 72.4641C155.634 71.4811 154.685 70.7746 153.745 71.0636C150.792 71.9722 147.347 72.4403 143.727 71.6536C137.357 70.2689 135.552 67.7723 130.356 66.5249C124.55 65.1329 119.284 69.5802 119.32 75.2693C119.331 77.1395 119.362 79.4767 119.366 82.4605C116.755 82.4605 114.787 80.3971 114.787 77.9656V70.3531C114.728 67.7027 114.849 58.3557 121.601 51.8477C129.45 44.2809 141.892 44.9004 150.903 48.9487C151.196 49.0804 151.188 49.5001 150.891 49.6224L148.541 50.5899C148.189 50.7346 148.263 51.2524 148.641 51.2929L149.783 51.4154C155.923 52.0719 161.031 55.7358 163.578 60.0791Z" fill="#FCAA4D"/>
<path d="M153.746 71.0636C154.685 70.7745 155.635 71.4803 155.635 72.4632C155.637 74.0741 155.633 77.1174 155.633 83.0338C155.633 90.5931 151.008 97.0717 144.433 99.7936C132.542 104.729 119.366 95.961 119.366 83.0338C119.366 79.6908 119.333 77.3156 119.321 75.2693C119.284 69.5801 124.55 65.1328 130.356 66.5249C135.553 67.7722 137.357 70.2688 143.728 71.6536C147.348 72.4401 150.793 71.9721 153.746 71.0636V71.0636Z" fill="#FFCFC8"/>
<path d="M165.709 122.344V129.535C165.709 130.344 165.052 131 164.243 131H110.758C109.949 131 109.293 130.344 109.293 129.535V122.344C109.293 114.799 115.41 108.688 122.955 108.685C125.622 108.684 127.971 107.311 129.322 105.23C134.04 109.261 140.959 109.263 145.679 105.23C147.03 107.311 149.379 108.684 152.047 108.685C159.592 108.688 165.709 114.799 165.709 122.344V122.344Z" fill="#25E4B7"/>
<path d="M152.336 127.886H147.94C147.131 127.886 146.475 127.23 146.475 126.42C146.475 125.611 147.131 124.955 147.94 124.955H152.336C153.145 124.955 153.801 125.611 153.801 126.42C153.801 127.23 153.145 127.886 152.336 127.886Z" fill="#FCFCFC"/>
<path d="M130.336 113.11C129.658 113.323 128.932 113.44 128.153 113.447C120.589 113.514 114.422 119.495 114.422 127.059V128.436C114.422 129.852 113.274 131 111.857 131H110.758C109.949 131 109.293 130.344 109.293 129.535V122.344C109.293 114.799 115.41 108.688 122.955 108.685C125.622 108.684 127.971 107.311 129.322 105.23C129.867 105.696 130.45 106.114 131.065 106.48C133.767 108.09 133.336 112.166 130.336 113.11Z" fill="#25E4B7"/>
<path d="M144.666 113.11C145.343 113.323 146.069 113.44 146.848 113.447C154.412 113.514 160.58 119.495 160.58 127.059V128.436C160.58 129.852 161.728 131 163.144 131H164.243C165.052 131 165.708 130.344 165.708 129.535V122.344C165.708 114.799 159.591 108.688 152.047 108.685C149.379 108.684 147.03 107.311 145.679 105.23C145.134 105.696 144.551 106.114 143.937 106.48C141.235 108.09 141.665 112.166 144.666 113.11V113.11Z" fill="#25E4B7"/>
<path d="M144.667 102.869C140.154 104.758 135.195 104.905 130.332 102.869C130.58 101.839 130.539 101.171 130.539 99.8617L130.566 99.7939C134.978 101.625 140.013 101.629 144.432 99.7939L144.46 99.8617C144.46 101.172 144.418 101.839 144.667 102.869Z" fill="#FFCFC8"/>
<path d="M150.891 49.6223C149.164 50.3325 148.782 50.5827 147.989 50.4521C133.455 48.0596 122.011 55.6588 120.445 70.5087C120.417 70.7694 120.35 71.0253 120.235 71.2605C119.12 73.5295 119.319 75.2088 119.342 78.0007C119.367 80.9378 114.941 81.1259 114.792 78.1924C114.783 78.0093 114.787 78.4921 114.787 70.3532C114.728 67.7028 114.849 58.3558 121.601 51.8478C129.451 44.2812 141.892 44.9003 150.904 48.9483C151.197 49.0802 151.188 49.4996 150.891 49.6223Z" fill="#FCAA4D"/>
<path d="M133.396 94.7453C136.377 96.6091 134.024 101.183 130.762 99.8735C124.063 97.1848 119.366 90.6528 119.366 83.034C119.366 79.6869 119.333 77.3239 119.32 75.2695C119.309 73.4303 119.851 71.7212 120.786 70.2972C121.962 68.5075 124.8 69.2874 124.816 71.6061C124.828 73.6675 124.861 76.0201 124.861 79.3706C124.861 86.0557 128.376 91.6057 133.396 94.7453Z" fill="#FFCFC8"/>
</g>
<defs>
<clipPath id="clip0">
<rect width="85" height="85" fill="white" transform="translate(44 46)"/>
</clipPath>
<clipPath id="clip1">
<rect width="85" height="85" fill="white" transform="translate(95 46)"/>
</clipPath>
</defs>
</svg>
