<svg width="277" height="301" viewBox="0 0 277 301" fill="none" xmlns="http://www.w3.org/2000/svg">
<circle cx="138.5" cy="162.5" r="138.5" fill="#A8ECBB"/>
<g clip-path="url(#clip0)">
<path d="M204.84 77.5469H172.696L146.32 98.1658L133.84 99.4635V81.6707H75.5977V102.29H106.66L67 106.413V214.182C67 216.491 68.8302 218.306 71.1602 218.306H204.84C207.17 218.306 209 216.491 209 214.182V81.6707C209 79.3611 207.17 77.5469 204.84 77.5469Z" fill="#FCAA4D"/>
<path d="M163.911 103.597L172.696 77.5469H71.1602C68.8626 77.5469 67 79.3932 67 81.6707V106.413H159.965C161.754 106.413 163.343 105.279 163.911 103.597V103.597ZM88.0781 94.042C85.7482 94.042 83.918 92.2273 83.918 89.9183C83.918 87.6087 85.7482 85.7945 88.0781 85.7945C90.4081 85.7945 92.2383 87.6087 92.2383 89.9183C92.2383 92.2273 90.4081 94.042 88.0781 94.042ZM104.719 94.042C102.389 94.042 100.559 92.2273 100.559 89.9183C100.559 87.6087 102.389 85.7945 104.719 85.7945C107.049 85.7945 108.879 87.6087 108.879 89.9183C108.879 92.2273 107.049 94.042 104.719 94.042ZM121.359 94.042C119.029 94.042 117.199 92.2273 117.199 89.9183C117.199 87.6087 119.029 85.7945 121.359 85.7945C123.689 85.7945 125.52 87.6087 125.52 89.9183C125.52 92.2273 123.689 94.042 121.359 94.042ZM187.922 119.06H88.0781C85.7482 119.06 83.918 120.874 83.918 123.184V197.412C83.918 199.721 85.7482 201.536 88.0781 201.536H187.922C190.252 201.536 192.082 199.721 192.082 197.412V123.184C192.082 120.874 190.252 119.06 187.922 119.06ZM125.52 139.679C125.52 138.276 126.269 136.957 127.516 136.132C128.681 135.39 130.262 135.39 131.51 135.967L156.471 148.338C157.886 149.081 158.801 150.483 158.801 152.05C158.801 153.617 157.886 155.019 156.471 155.761L131.51 168.133C129.976 168.784 128.543 168.604 127.516 167.968C126.269 167.143 125.52 165.823 125.52 164.421V139.679ZM171.281 185.04H104.719C102.389 185.04 100.559 183.226 100.559 180.917C100.559 178.607 102.389 176.793 104.719 176.793H108.879V172.669C108.879 170.359 110.709 168.545 113.039 168.545C115.369 168.545 117.199 170.359 117.199 172.669V176.793H171.281C173.611 176.793 175.441 178.607 175.441 180.917C175.441 183.226 173.611 185.04 171.281 185.04Z" fill="#FDCE99"/>
</g>
<path d="M88.3289 20.8724C84.8267 20.8724 82 23.6992 82 27.2013V44.0782C82 47.5801 84.8267 50.4071 88.3289 50.4071H100.593L104.812 36.068L100.593 20.8724H88.3289ZM147.21 19.2305C145.15 17.1661 142.752 15.5324 140.081 14.3705C139.018 13.9007 137.77 14.3931 137.308 15.4624C136.843 16.5317 137.329 17.774 138.4 18.2395C140.58 19.1871 142.541 20.5242 144.227 22.2136C147.807 25.7942 149.781 30.5613 149.781 35.6398C149.781 40.7182 147.807 45.4854 144.227 49.0659C142.541 50.7553 140.58 52.0924 138.4 53.04C137.329 53.5057 136.843 54.748 137.308 55.8171C137.773 56.8945 139.033 57.3698 140.081 56.9091C142.751 55.7471 145.149 54.1134 147.21 52.0491C151.59 47.6733 154 41.845 154 35.6398C154 29.4345 151.59 23.6062 147.21 19.2305V19.2305ZM137.824 43.5116C136.962 44.2924 136.896 45.6274 137.675 46.4907C138.457 47.3541 139.796 47.4218 140.658 46.639C143.968 43.5998 145.566 39.7025 145.566 35.6398C145.566 31.6208 144.004 27.7134 140.658 24.6405C139.801 23.8618 138.458 23.9256 137.675 24.7889C136.896 25.6521 136.962 26.9871 137.824 27.7679C138.119 28.1913 141.347 30.5647 141.347 35.6399C141.347 40.6985 138.118 43.0895 137.824 43.5116V43.5116Z" fill="#B7FFEE"/>
<path d="M121.362 5.13476L99 20.8727V50.4073L121.404 66.1449C125.715 69.0759 131.319 65.9918 131.319 60.9554V10.3246C131.319 5.42012 125.905 2.16484 121.362 5.13476V5.13476Z" fill="#25E4B7"/>
<defs>
<clipPath id="clip0">
<rect width="142" height="140.759" fill="white" transform="translate(67 77.5469)"/>
</clipPath>
</defs>
</svg>
