<svg width="38" height="38" viewBox="0 0 38 38" fill="none" xmlns="http://www.w3.org/2000/svg">
<circle cx="19" cy="19" r="19" fill="#FB8501" fill-opacity="0.15"/>
<path d="M19.8151 19.1968L12.2831 20.4528C12.1965 20.4673 12.1152 20.5043 12.0475 20.5601C11.9797 20.6159 11.9278 20.6886 11.8971 20.7708L9.30008 27.7278C9.05208 28.3678 9.72108 28.9778 10.3351 28.6708L28.3351 19.6708C28.4598 19.6086 28.5646 19.5128 28.6379 19.3943C28.7112 19.2758 28.75 19.1392 28.75 18.9998C28.75 18.8605 28.7112 18.7239 28.6379 18.6054C28.5646 18.4868 28.4598 18.3911 28.3351 18.3288L10.3351 9.32884C9.72108 9.02184 9.05208 9.63284 9.30008 10.2718L11.8981 17.2288C11.9287 17.3113 11.9805 17.3841 12.0483 17.4401C12.116 17.4962 12.1974 17.5333 12.2841 17.5478L19.8161 18.8028C19.8624 18.811 19.9044 18.8352 19.9347 18.8712C19.965 18.9072 19.9816 18.9528 19.9816 18.9998C19.9816 19.0469 19.965 19.0925 19.9347 19.1285C19.9044 19.1645 19.8624 19.1887 19.8161 19.1968H19.8151Z" fill="#FB8501"/>
</svg>
