<svg width="20" height="15" viewBox="0 0 20 15" fill="none" xmlns="http://www.w3.org/2000/svg">
<path d="M9.17586 14.569C9.2676 14.7022 9.39036 14.8112 9.53355 14.8864C9.67675 14.9617 9.83609 15.001 9.99786 15.001C10.1596 15.001 10.319 14.9617 10.4622 14.8864C10.6054 14.8112 10.7281 14.7022 10.8199 14.569L19.8199 1.569C19.924 1.41906 19.9851 1.24343 19.9965 1.06121C20.0079 0.87898 19.9691 0.697123 19.8843 0.535394C19.7996 0.373665 19.6722 0.238248 19.5159 0.143858C19.3596 0.049468 19.1804 -0.000286344 18.9979 1.23965e-06H0.997861C0.815705 0.000753649 0.6372 0.0511479 0.481542 0.145764C0.325885 0.24038 0.198964 0.375639 0.11443 0.536994C0.0298962 0.698349 -0.00905316 0.879696 0.0017708 1.06153C0.0125948 1.24337 0.0727825 1.41881 0.175861 1.569L9.17586 14.569Z" fill="#219EBC"/>
</svg>
