<svg width="24" height="24" viewBox="0 0 24 24" fill="none" xmlns="http://www.w3.org/2000/svg">
<path d="M17.9364 2.42404V15.6769C17.9364 18.9542 15.2791 21.6106 11.9998 21.6106C8.71897 21.6106 6.0632 18.9546 6.0632 15.6693V5.97738C6.0632 4.00235 7.6502 2.40444 9.62326 2.38948C11.5906 2.40444 13.1834 4.00577 13.1834 5.97222V15.5966C13.1834 16.2543 12.6475 16.7897 11.9898 16.7897C11.3297 16.7897 10.7961 16.257 10.7961 15.5992V4.81341H8.40676V15.5991C8.40676 17.5775 10.011 19.179 11.9898 19.179C13.9666 19.179 15.5728 17.5745 15.5728 15.5966V5.97222C15.5728 2.69525 12.9251 0.0301842 9.6512 0L9.59548 0.000280002C6.31503 0.0300722 3.67383 2.69256 3.67383 5.97738V15.6693C3.67383 20.2743 7.39937 24 11.9998 24C16.5986 24 20.3258 20.274 20.3258 15.6769V2.42404H17.9364Z" fill="#219EBC"/>
</svg>
