<?xml version="1.0" standalone="no"?>
<!DOCTYPE svg PUBLIC "-//W3C//DTD SVG 20010904//EN"
 "http://www.w3.org/TR/2001/REC-SVG-20010904/DTD/svg10.dtd">
<svg version="1.0" xmlns="http://www.w3.org/2000/svg"
 width="512.000000pt" height="512.000000pt" viewBox="0 0 512.000000 512.000000"
 preserveAspectRatio="xMidYMid meet">

<g transform="translate(0.000000,512.000000) scale(0.100000,-0.100000)"
fill="#ffffff" stroke="none">
<path d="M400 4867 c-49 -16 -133 -102 -148 -153 -18 -60 -18 -4248 0 -4308
16 -55 99 -138 154 -154 32 -9 525 -12 2156 -12 2385 0 2172 -8 2251 80 24 26
49 66 55 88 17 57 17 2007 0 2064 -6 22 -31 62 -55 88 -65 72 -151 96 -247 68
-55 -16 -138 -99 -154 -154 -9 -31 -12 -255 -12 -898 l0 -856 -1840 0 -1840 0
0 1840 0 1840 858 0 c975 0 919 -5 995 80 90 100 90 220 0 320 -77 85 -2 80
-1137 79 -699 -1 -1012 -4 -1036 -12z"/>
<path d="M3280 4867 c-49 -16 -133 -102 -148 -153 -28 -94 -8 -169 63 -239 31
-32 65 -55 91 -63 29 -8 150 -12 410 -12 l369 0 -1176 -1177 c-1258 -1260
-1199 -1197 -1199 -1293 0 -124 116 -240 240 -240 96 0 33 -59 1293 1199
l1177 1176 0 -369 c0 -260 4 -381 12 -410 16 -55 99 -138 154 -154 96 -28 182
-4 247 68 24 26 49 66 55 88 17 56 17 1368 0 1424 -6 22 -31 62 -55 88 -75 83
-41 80 -817 79 -466 -1 -692 -5 -716 -12z"/>
</g>
</svg>
