<svg width="32" height="32" viewBox="0 0 32 32" fill="none" xmlns="http://www.w3.org/2000/svg">
<g clip-path="url(#clip0)">
<g filter="url(#filter0_d)">
<path fill-rule="evenodd" clip-rule="evenodd" d="M15.9997 1.33301C7.89967 1.33301 1.33301 7.89967 1.33301 15.9997C1.33301 24.0997 7.89967 30.6663 15.9997 30.6663C24.0997 30.6663 30.6663 24.0997 30.6663 15.9997C30.6663 7.89967 24.0997 1.33301 15.9997 1.33301ZM17.333 21.333C17.333 21.6866 17.1925 22.0258 16.9425 22.2758C16.6924 22.5259 16.3533 22.6663 15.9997 22.6663C15.6461 22.6663 15.3069 22.5259 15.0569 22.2758C14.8068 22.0258 14.6663 21.6866 14.6663 21.333V17.333H10.6663C10.3127 17.333 9.97358 17.1925 9.72353 16.9425C9.47348 16.6924 9.33301 16.3533 9.33301 15.9997C9.33301 15.6461 9.47348 15.3069 9.72353 15.0569C9.97358 14.8068 10.3127 14.6663 10.6663 14.6663H14.6663V10.6663C14.6663 10.3127 14.8068 9.97358 15.0569 9.72353C15.3069 9.47348 15.6461 9.33301 15.9997 9.33301C16.3533 9.33301 16.6924 9.47348 16.9425 9.72353C17.1925 9.97358 17.333 10.3127 17.333 10.6663V14.6663H21.333C21.6866 14.6663 22.0258 14.8068 22.2758 15.0569C22.5259 15.3069 22.6663 15.6461 22.6663 15.9997C22.6663 16.3533 22.5259 16.6924 22.2758 16.9425C22.0258 17.1925 21.6866 17.333 21.333 17.333H17.333V21.333Z" fill="#FB8501"/>
</g>
</g>
<defs>
<filter id="filter0_d" x="-33.667" y="-33.667" width="109.333" height="109.333" filterUnits="userSpaceOnUse" color-interpolation-filters="sRGB">
<feFlood flood-opacity="0" result="BackgroundImageFix"/>
<feColorMatrix in="SourceAlpha" type="matrix" values="0 0 0 0 0 0 0 0 0 0 0 0 0 0 0 0 0 0 127 0" result="hardAlpha"/>
<feOffset dx="5" dy="5"/>
<feGaussianBlur stdDeviation="20"/>
<feComposite in2="hardAlpha" operator="out"/>
<feColorMatrix type="matrix" values="0 0 0 0 0.984314 0 0 0 0 0.521569 0 0 0 0 0.00392157 0 0 0 0.25 0"/>
<feBlend mode="normal" in2="BackgroundImageFix" result="effect1_dropShadow"/>
<feBlend mode="normal" in="SourceGraphic" in2="effect1_dropShadow" result="shape"/>
</filter>
<clipPath id="clip0">
<rect width="32" height="32" fill="white"/>
</clipPath>
</defs>
</svg>
