<svg width="24" height="24" viewBox="0 0 24 24" fill="#000" xmlns="http://www.w3.org/2000/svg">
<path d="M22.8 3.6H21.6V1.8C21.6 0.84 20.76 0 19.8 0C18.84 0 18 0.84 18 1.8V3.6H7.2V1.8C7.2 0.84 6.36 0 5.4 0C4.44 0 3.6 0.84 3.6 1.8V3.6H1.2C0.6 3.6 0 4.2 0 4.8V22.8C0 23.4 0.48 24 1.2 24H22.8C23.52 24 24 23.4 24 22.8V4.8C24 4.2 23.52 3.6 22.8 3.6ZM7.2 21.6H2.4V16.8H7.2V21.6V21.6ZM7.2 14.4H2.4V9.6H7.2V14.4V14.4ZM14.4 21.6H9.6V16.8H14.4V21.6V21.6ZM14.4 14.4H9.6V9.6H14.4V14.4V14.4ZM21.6 14.4H16.8V9.6H21.6V14.4V14.4Z" fill="#FB8501" fill-opacity="0.6"/>
</svg>
