<svg width="20" height="20" viewBox="0 0 20 20" fill="none" xmlns="http://www.w3.org/2000/svg">
<path fill-rule="evenodd" clip-rule="evenodd" d="M9.99967 0.833008C4.93717 0.833008 0.833008 4.93717 0.833008 9.99967C0.833008 15.0622 4.93717 19.1663 9.99967 19.1663C15.0622 19.1663 19.1663 15.0622 19.1663 9.99967C19.1663 4.93717 15.0622 0.833008 9.99967 0.833008ZM13.973 8.44967C14.0462 8.36604 14.1019 8.26862 14.1368 8.16315C14.1718 8.05767 14.1853 7.94627 14.1766 7.83549C14.1678 7.72472 14.137 7.61681 14.086 7.51811C14.0349 7.41942 13.9647 7.33193 13.8793 7.26079C13.7939 7.18966 13.6952 7.13631 13.5889 7.10389C13.4826 7.07148 13.3709 7.06064 13.2604 7.07203C13.1499 7.08342 13.0427 7.1168 12.9453 7.1702C12.8479 7.22361 12.7621 7.29596 12.693 7.38301L9.10967 11.6822L7.25551 9.82717C7.09834 9.67538 6.88784 9.59138 6.66934 9.59328C6.45084 9.59518 6.24183 9.68282 6.08733 9.83732C5.93282 9.99183 5.84518 10.2008 5.84328 10.4193C5.84138 10.6378 5.92538 10.8483 6.07717 11.0055L8.57717 13.5055C8.65905 13.5873 8.75709 13.6512 8.86502 13.6931C8.97295 13.7349 9.08842 13.7538 9.20406 13.7485C9.31971 13.7433 9.43299 13.714 9.53668 13.6625C9.64038 13.6111 9.73222 13.5386 9.80634 13.4497L13.973 8.44967Z" fill="#FB8501" fill-opacity="0.6"/>
</svg>
