<svg width="16" height="20" viewBox="0 0 16 20" fill="none" xmlns="http://www.w3.org/2000/svg">
<path d="M11.2929 0.719134C11.6834 0.328464 12.3167 0.328395 12.7073 0.71898L14.293 2.30477C14.6835 2.69523 14.6836 3.32828 14.2932 3.71883L13.4201 4.5923C13.0296 4.98297 12.3963 4.98304 12.0057 4.59246L10.42 3.00667C10.0295 2.61621 10.0294 1.98316 10.4198 1.59261L11.2929 0.719134ZM0.293405 11.7067C0.105556 11.8943 0 12.1489 0 12.4144V13.9997C0 14.552 0.447715 14.9997 1 14.9997H2.58621C2.85118 14.9997 3.10531 14.8946 3.29281 14.7073L10.5909 7.41982C10.9819 7.02938 10.9821 6.39582 10.5914 6.0051L9.0056 4.41931C8.61527 4.02899 7.9825 4.02876 7.59189 4.4188L0.293405 11.7067ZM0 18.9997C0 18.4474 0.447715 17.9997 1 17.9997H15C15.5523 17.9997 16 18.4474 16 18.9997C16 19.552 15.5523 19.9997 15 19.9997H1C0.447715 19.9997 0 19.552 0 18.9997Z" fill="#FB8501" fill-opacity="0.6"/>
</svg>
