<?xml version="1.0" standalone="no"?>
<!DOCTYPE svg PUBLIC "-//W3C//DTD SVG 20010904//EN"
 "http://www.w3.org/TR/2001/REC-SVG-20010904/DTD/svg10.dtd">
<svg version="1.0" xmlns="http://www.w3.org/2000/svg"
 width="96.000000pt" height="96.000000pt" viewBox="0 0 96.000000 96.000000"
 preserveAspectRatio="xMidYMid meet">

<g transform="translate(0.000000,96.000000) scale(0.100000,-0.100000)"
fill="#000000" stroke="none">
<path d="M376 790 c-112 -29 -245 -137 -305 -249 l-32 -61 32 -61 c47 -87 134
-170 226 -216 74 -37 80 -38 183 -38 103 0 108 1 184 39 94 46 177 126 225
215 l32 61 -32 61 c-47 88 -131 169 -222 214 -67 33 -86 38 -164 41 -48 2
-105 -1 -127 -6z m251 -105 c66 -29 156 -112 187 -173 17 -32 16 -34 -8 -75
-35 -60 -117 -134 -184 -165 -48 -23 -71 -27 -142 -27 -71 0 -94 4 -142 27
-67 31 -149 105 -184 165 -24 40 -25 43 -9 74 25 47 103 127 153 156 104 61
219 68 329 18z"/>
<path d="M415 626 c-101 -44 -125 -178 -46 -257 65 -65 157 -65 222 0 124 124
-15 327 -176 257z m120 -91 c16 -15 25 -36 25 -55 0 -19 -9 -40 -25 -55 -15
-16 -36 -25 -55 -25 -19 0 -40 9 -55 25 -16 15 -25 36 -25 55 0 19 9 40 25 55
15 16 36 25 55 25 19 0 40 -9 55 -25z"/>
</g>
</svg>
