<svg width="20" height="20" viewBox="0 0 20 20" fill="none" xmlns="http://www.w3.org/2000/svg">
<path d="M10 12.9004L5 10.9004V15.2004C5 16.3004 5.9 17.2004 7 17.2004H13C14.1 17.2004 15 16.3004 15 15.2004V10.9004L10 12.9004Z" fill="#FB8501" fill-opacity="0.6"/>
<path d="M10 10.8008L20 6.80078L10 2.80078L0 6.80078L1 7.20078V12.4008C0.5 13.3008 0 14.3008 0 14.9008C0 16.0008 0.9 17.0008 2 17.0008C3.1 17.0008 4 16.1008 4 14.9008C4 14.3008 3.5 13.3008 3 12.5008V8.00078L10 10.8008Z" fill="#FB8501" fill-opacity="0.6"/>
</svg>
