<svg width="24" height="24" viewBox="0 0 24 24" fill="none" xmlns="http://www.w3.org/2000/svg">
<path d="M20.4004 2.4H18.0004V1.2C18.0004 0.48 17.4004 0 16.8004 0C16.2004 0 15.6004 0.6 15.6004 1.2V2.4H13.2004V1.2C13.2004 0.48 12.6004 0 12.0004 0C11.4004 0 10.8004 0.6 10.8004 1.2V2.4H8.40039V1.2C8.40039 0.48 7.80039 0 7.20039 0C6.60039 0 6.00039 0.6 6.00039 1.2V2.4H3.60039C3.00039 2.4 2.40039 3 2.40039 3.6V22.8C2.40039 23.52 3.00039 24 3.60039 24H15.6004L21.6004 19.2V3.6C21.6004 3 21.1204 2.4 20.4004 2.4ZM13.2004 16.8H6.00039C5.28039 16.8 4.80039 16.32 4.80039 15.6C4.80039 14.88 5.28039 14.4 6.00039 14.4H13.2004C13.9204 14.4 14.4004 14.88 14.4004 15.6C14.4004 16.32 13.9204 16.8 13.2004 16.8ZM16.8004 12H6.00039C5.28039 12 4.80039 11.52 4.80039 10.8C4.80039 10.08 5.28039 9.6 6.00039 9.6H16.8004C17.5204 9.6 18.0004 10.08 18.0004 10.8C18.0004 11.52 17.5204 12 16.8004 12ZM16.8004 7.2H6.00039C5.40039 7.2 4.80039 6.72 4.80039 6C4.80039 5.28 5.28039 4.8 6.00039 4.8H16.8004C17.5204 4.8 18.0004 5.28 18.0004 6C18.0004 6.72 17.5204 7.2 16.8004 7.2Z" fill="#FB8501" fill-opacity="0.6"/>
</svg>
