<?xml version="1.0" standalone="no"?>
<!DOCTYPE svg PUBLIC "-//W3C//DTD SVG 20010904//EN"
 "http://www.w3.org/TR/2001/REC-SVG-20010904/DTD/svg10.dtd">
<svg version="1.0" xmlns="http://www.w3.org/2000/svg"
 width="128.000000pt" height="128.000000pt" viewBox="0 0 128.000000 128.000000"
 preserveAspectRatio="xMidYMid meet">

<g transform="translate(0.000000,128.000000) scale(0.100000,-0.100000)"
fill="#000000" stroke="none">
<path d="M546 1230 c-63 -16 -153 -70 -197 -117 -53 -58 -97 -154 -105 -229
-9 -81 -2 -86 121 -82 108 3 109 4 120 73 5 26 18 51 44 76 65 65 157 65 222
0 60 -60 65 -149 12 -212 -36 -42 -80 -59 -156 -59 -36 0 -68 -5 -75 -12 -17
-17 -17 -319 0 -336 16 -16 200 -16 216 0 7 7 12 37 12 68 l0 55 65 34 c193
100 268 330 170 527 -65 132 -187 213 -333 220 -42 2 -94 -1 -116 -6z"/>
<path d="M532 268 c-16 -16 -16 -200 0 -216 16 -16 200 -16 216 0 16 16 16
200 0 216 -16 16 -200 16 -216 0z"/>
</g>
</svg>
