<svg width="24" height="24" viewBox="0 0 24 24" fill="none" xmlns="http://www.w3.org/2000/svg">
<path d="M20 2H8C7.46957 2 6.96086 2.21071 6.58579 2.58579C6.21071 2.96086 6 3.46957 6 4V16C6 16.5304 6.21071 17.0391 6.58579 17.4142C6.96086 17.7893 7.46957 18 8 18H20C20.5304 18 21.0391 17.7893 21.4142 17.4142C21.7893 17.0391 22 16.5304 22 16V4C22 3.46957 21.7893 2.96086 21.4142 2.58579C21.0391 2.21071 20.5304 2 20 2ZM14 4.5C14.663 4.5 15.2989 4.76339 15.7678 5.23223C16.2366 5.70107 16.5 6.33696 16.5 7C16.5 7.66304 16.2366 8.29893 15.7678 8.76777C15.2989 9.23661 14.663 9.5 14 9.5C13.337 9.5 12.7011 9.23661 12.2322 8.76777C11.7634 8.29893 11.5 7.66304 11.5 7C11.5 6.33696 11.7634 5.70107 12.2322 5.23223C12.7011 4.76339 13.337 4.5 14 4.5V4.5ZM19 15H9V14.75C9 12.901 11.254 11 14 11C16.746 11 19 12.901 19 14.75V15Z" fill="#FB8501" fill-opacity="0.6"/>
<path d="M4 8H2V20C2 21.103 2.897 22 4 22H16V20H4V8Z" fill="#FB8501" fill-opacity="0.6"/>
</svg>
